<svg xmlns="http://www.w3.org/2000/svg" xmlns:xlink="http://www.w3.org/1999/xlink" viewBox="0 0 854 158">
  <defs>
    <style>
      .cls-1 {
        clip-path: url(#clip-custom_1);
      }

      .cls-2 {
        fill: #f60;
      }

      .cls-3 {
        fill: #fff;
      }

      .cls-4 {
        fill: #555351;
        font-size: 62px;
        font-family: Montserrat-Regular, Montserrat;
      }
    </style>
    <clipPath id="clip-custom_1">
      <rect width="854" height="158"/>
    </clipPath>
  </defs>
  <g id="custom_1" data-name="custom – 1" class="cls-1">
    <ellipse id="Ellipse_1" data-name="Ellipse 1" class="cls-2" cx="70" cy="69.44" rx="70" ry="69.44" transform="translate(14 9)"/>
    <path id="tag-solid" class="cls-3" d="M0,39.393V7.5A7.5,7.5,0,0,1,7.5,0H39.393a7.5,7.5,0,0,1,5.3,2.2L77.8,35.3a7.5,7.5,0,0,1,0,10.607L45.91,77.8a7.5,7.5,0,0,1-10.607,0L2.2,44.7a7.5,7.5,0,0,1-2.2-5.3ZM17.5,10A7.5,7.5,0,1,0,25,17.5,7.5,7.5,0,0,0,17.5,10Z" transform="translate(49 54)"/>
    <path id="Path_1" data-name="Path 1" class="cls-3" d="M4,155.974C55.021,104.7,67.629,113.48,67.629,113.48Z" transform="translate(45 -97.881)"/>
    <text id="HARALD_WEBBSHOP" data-name="HARALD WEBBSHOP" class="cls-4" transform="translate(161 101)"><tspan x="0" y="0">HARALD WEBBSHOP</tspan></text>
  </g>
</svg>
